HIERARCHY
ROOT Hips
{
	OFFSET 0.000000 0.000000 0.000000
	CHANNELS 6 Xposition Yposition Zposition Zrotation Yrotation Xrotation 
	JOINT LHipJoint
	{
		OFFSET 0.000000 0.000000 0.000000
		CHANNELS 3 Zrotation Yrotation Xrotation
		JOINT LeftUpLeg
		{
			OFFSET 1.363060 -1.794630 0.839290
			CHANNELS 3 Zrotation Yrotation Xrotation
			JOINT LeftLeg
			{
				OFFSET 2.448110 -6.726130 0.000000
				CHANNELS 3 Zrotation Yrotation Xrotation
				JOINT LeftFoot
				{
					OFFSET 2.562200 -7.039590 0.000000
					CHANNELS 3 Zrotation Yrotation Xrotation
					JOINT LeftToeBase
					{
						OFFSET 0.157640 -0.433110 2.322550
						CHANNELS 3 Zrotation Yrotation Xrotation
						End Site
						{
							OFFSET 0.000000 0.000000 0.000000
						}
					}
				}
			}
		}
	}
	JOINT RHipJoint
	{
		OFFSET 0.000000 0.000000 0.000000
		CHANNELS 3 Zrotation Yrotation Xrotation
		JOINT RightUpLeg
		{
			OFFSET -1.305520 -1.794630 0.839290
			CHANNELS 3 Zrotation Yrotation Xrotation
			JOINT RightLeg
			{
				OFFSET -2.542530 -6.985550 0.000000
				CHANNELS 3 Zrotation Yrotation Xrotation
				JOINT RightFoot
				{
					OFFSET -2.568260 -7.056230 0.000000
					CHANNELS 3 Zrotation Yrotation Xrotation
					JOINT RightToeBase
					{
						OFFSET -0.164730 -0.452590 2.363150
						CHANNELS 3 Zrotation Yrotation Xrotation
						End Site
						{
							OFFSET 0.000000 0.000000 0.000000
						}
					}
				}
			}
		}
	}
	JOINT LowerBack
	{
		OFFSET 0.000000 0.000000 0.000000
		CHANNELS 3 Zrotation Yrotation Xrotation
		JOINT Spine
		{
			OFFSET 0.028270 2.035590 -0.193380
			CHANNELS 3 Zrotation Yrotation Xrotation
			JOINT Spine1
			{
				OFFSET 0.056720 2.048850 -0.042750
				CHANNELS 3 Zrotation Yrotation Xrotation
				JOINT Neck
				{
					OFFSET 0.000000 0.000000 0.000000
					CHANNELS 3 Zrotation Yrotation Xrotation
					JOINT Neck1
					{
						OFFSET -0.054170 1.746240 0.172020
						CHANNELS 3 Zrotation Yrotation Xrotation
						JOINT Head
						{
							OFFSET 0.104070 1.761360 -0.123970
							CHANNELS 3 Zrotation Yrotation Xrotation
							End Site
							{
								OFFSET 0.000000 0.000000 0.000000
							}
						}
					}
				}
				JOINT LeftShoulder
				{
					OFFSET 0.000000 0.000000 0.000000
					CHANNELS 3 Zrotation Yrotation Xrotation
					JOINT LeftArm
					{
						OFFSET 3.362410 1.200890 -0.311210
						CHANNELS 3 Zrotation Yrotation Xrotation
						JOINT LeftForeArm
						{
							OFFSET 4.983000 -0.000000 -0.000000
							CHANNELS 3 Zrotation Yrotation Xrotation
							JOINT LeftHand
							{
								OFFSET 3.483560 -0.000000 -0.000000
								CHANNELS 3 Zrotation Yrotation Xrotation
								JOINT LeftFingerBase
								{
									OFFSET 0.000000 0.000000 0.000000
									CHANNELS 3 Zrotation Yrotation Xrotation
									JOINT LeftHandIndex1
									{
										OFFSET 0.715260 -0.000000 -0.000000
										CHANNELS 3 Zrotation Yrotation Xrotation
										End Site
										{
											OFFSET 0.000000 0.000000 0.000000
										}
									}
								}
								JOINT LThumb
								{
									OFFSET 0.000000 0.000000 0.000000
									CHANNELS 3 Zrotation Yrotation Xrotation
									End Site
									{
										OFFSET 0.000000 0.000000 0.000000
									}
								}
							}
						}
					}
				}
				JOINT RightShoulder
				{
					OFFSET 0.000000 0.000000 0.000000
					CHANNELS 3 Zrotation Yrotation Xrotation
					JOINT RightArm
					{
						OFFSET -3.136600 1.374050 -0.404650
						CHANNELS 3 Zrotation Yrotation Xrotation
						JOINT RightForeArm
						{
							OFFSET -5.241900 -0.000000 -0.000000
							CHANNELS 3 Zrotation Yrotation Xrotation
							JOINT RightHand
							{
								OFFSET -3.444170 -0.000000 -0.000000
								CHANNELS 3 Zrotation Yrotation Xrotation
								JOINT RightFingerBase
								{
									OFFSET 0.000000 0.000000 0.000000
									CHANNELS 3 Zrotation Yrotation Xrotation
									JOINT RightHandIndex1
									{
										OFFSET -0.622530 -0.000000 -0.000000
										CHANNELS 3 Zrotation Yrotation Xrotation
										End Site
										{
											OFFSET 0.000000 0.000000 0.000000
										}
									}
								}
								JOINT RThumb
								{
									OFFSET 0.000000 0.000000 0.000000
									CHANNELS 3 Zrotation Yrotation Xrotation
									End Site
									{
										OFFSET 0.000000 0.000000 0.000000
									}
								}
							}
						}
					}
				}
			}
		}
	}
}
MOTION
Frames: 9
Frame Time: 0.008333
-28.229863 16.335078 -3.788309 4.681093 9.833921 17.607941 3.714964 -1.559789 -3.678487 -10.635705 10.468800 -47.053605 18.762620 21.586036 85.604781 0.120530 -0.316243 1.421077 2.251100 -9.370500 -26.961400 -1.059020 0.657579 0.173474 19.119943 -4.039351 -13.958442 -5.686905 -15.460333 47.744325 -4.619453 12.318500 -10.955791 -0.424200 4.180300 -11.584500 -7.764268 4.065760 26.025075 -0.359733 3.315088 -1.917054 -0.167950 1.392619 2.224783 -9.230031 -5.982310 -9.455268 4.698180 -6.790160 -1.719613 8.185400 -0.441100 -3.953700 -2.592342 -1.282712 1.845828 -54.980364 -26.709939 2.955978 16.391334 -28.497055 -7.907487 -1.218290 -3.046448 -14.102507 11.193458 27.307436 6.600300 -7.125000 0.000000 0.000000 -20.521500 59.245300 -7.332700 -2.850222 3.510082 1.841232 77.817745 21.497336 33.945690 -27.538020 38.717409 -12.894959 0.713412 -0.820214 -27.608146 -18.402841 20.631787 -7.121000 7.125000 0.000000 0.000000 6.369800 -7.300100 5.544000 
-28.117620 16.400856 -3.315366 4.634155 9.668906 18.138609 3.836220 -1.681739 -3.980109 -10.350023 9.075076 -49.045865 17.650640 21.684712 82.434529 0.314369 -1.132170 1.641068 1.970600 -8.804700 -25.186200 -0.830333 0.458578 0.573579 18.504571 -5.034013 -12.384691 -4.750207 -14.555365 44.690013 -4.703327 13.666207 -7.867795 -0.367500 3.894000 -10.778700 -7.388737 4.446314 25.344301 -0.471598 3.758899 -1.959477 -1.057264 1.780076 1.937319 -9.427051 -6.563534 -8.575693 4.664682 -7.664567 -1.394862 8.446500 -0.861900 -3.815800 -2.628460 -1.023844 1.830475 -55.668213 -24.812007 3.563751 18.510619 -30.800708 -9.257323 -0.748780 -3.212162 -18.115589 9.208346 28.442240 5.689600 -7.125000 0.000000 0.000000 -23.858800 59.963700 -9.019400 -3.021194 3.462412 1.877484 78.076836 19.842181 34.621602 -28.056187 39.390804 -13.241544 0.683692 -0.840553 -27.025351 -18.495985 20.767087 -7.192400 7.125000 0.000000 0.000000 6.336400 -7.145400 5.533900 
-28.006173 16.421078 -2.853444 4.685737 9.534795 18.534421 3.931683 -1.780598 -4.276682 -9.864247 7.400769 -50.746320 16.436154 21.745915 79.023427 0.486344 -1.859765 2.240123 1.605400 -7.990700 -22.685700 -0.593887 0.200856 1.050546 17.845603 -6.012714 -10.234415 -3.758864 -13.470821 41.290862 -4.508105 13.078429 -5.743165 -0.605000 4.978700 -13.847900 -7.369966 4.772378 24.814339 -0.560352 4.060571 -2.003191 -1.761329 2.050770 1.736899 -9.254190 -6.936517 -8.071707 4.454953 -8.223031 -0.878983 8.373400 -1.251000 -3.482000 -2.597601 -0.815442 1.785699 -56.205618 -22.783524 3.418394 20.609460 -32.932095 -10.713815 -0.301807 -3.259259 -22.396462 7.455310 28.908510 4.739800 -7.125000 0.000000 0.000000 -26.352500 60.027500 -10.079800 -3.146358 3.378763 1.840595 78.842699 18.272810 34.542610 -28.376006 39.868281 -13.490545 0.607124 -0.892824 -24.507031 -18.663800 20.923125 -7.295000 7.125000 0.000000 0.000000 6.270600 -6.955100 5.499000 
-27.914493 16.500034 -2.341535 4.669672 9.362093 18.812819 3.928747 -1.858088 -4.509176 -9.299384 5.925755 -51.582657 14.883905 21.641530 74.704526 0.671526 -2.523526 2.912053 1.367300 -7.400500 -20.907500 -0.395857 -0.020495 1.475553 17.250477 -6.478019 -8.189069 -2.843935 -12.434302 38.227023 -4.598786 14.837363 -1.639438 -0.194900 2.843000 -7.842000 -7.720060 5.109332 24.283770 -0.597089 4.391617 -2.043653 -1.852526 2.251863 1.600470 -9.114766 -7.077912 -7.770471 4.205277 -8.444587 -0.291520 8.150800 -1.522900 -3.123900 -2.443794 -0.644610 1.733788 -57.316304 -20.309911 2.863220 22.918160 -35.176039 -12.504329 0.128804 -3.240095 -26.658352 5.615595 30.158372 3.797500 -7.125000 0.000000 0.000000 -29.643800 60.709600 -11.955300 -3.195828 3.232227 1.758743 79.538411 16.612732 33.904837 -28.571525 40.197533 -13.695267 0.497021 -0.936794 -20.428990 -18.866089 21.051094 -7.398700 7.125000 0.000000 0.000000 6.178900 -6.807400 5.435400 
-27.821790 16.562177 -1.818947 4.725952 9.015481 19.257826 3.907164 -1.951774 -4.739896 -8.714290 4.282874 -52.202982 13.198966 21.408398 70.076708 0.839620 -3.061662 3.896819 1.241600 -7.065500 -19.909700 -0.182445 -0.235278 1.911413 16.506925 -6.502723 -6.142434 -1.915195 -11.321197 35.101168 -4.479904 15.454047 2.838900 -0.153500 2.524200 -6.956700 -8.310857 5.569625 23.448997 -0.667966 4.862879 -2.076263 -1.832232 2.535086 1.600870 -9.520955 -7.498883 -7.545848 4.281851 -9.133895 0.236703 8.396900 -1.914300 -2.648900 -2.375016 -0.452996 1.701989 -58.477439 -17.932238 2.354576 25.538480 -37.464657 -14.529387 0.343507 -3.157470 -30.854094 6.634674 30.943975 4.435100 -7.125000 0.000000 0.000000 -29.315800 61.560200 -12.404900 -3.358699 3.043060 1.700729 80.214587 14.827474 33.296609 -29.002850 40.718867 -14.058616 0.423120 -0.955910 -17.308459 -19.133762 21.110758 -7.517900 7.125000 0.000000 0.000000 6.026100 -6.719200 5.309800 
-27.723861 16.591147 -1.306016 4.735713 8.799370 19.742751 3.884563 -2.076930 -4.982631 -7.836538 2.206417 -52.731937 11.452003 21.064189 65.289337 0.933101 -3.210792 5.288297 1.359900 -7.381300 -20.850200 0.020677 -0.444888 2.344351 15.892960 -6.349425 -4.097201 -1.101714 -10.231364 32.164455 -4.269800 15.065387 6.791995 -0.240600 3.156700 -8.715200 -8.718092 5.958603 22.625964 -0.748817 5.265558 -2.111876 -2.099176 2.809305 1.583372 -9.580030 -7.942733 -7.257204 4.310776 -9.854758 0.657321 8.497100 -2.337100 -2.285200 -2.294336 -0.238067 1.678187 -59.415718 -15.439532 1.511385 28.559529 -39.786280 -16.896504 0.486098 -2.997496 -34.547920 8.159058 30.183833 5.158500 -7.125000 0.000000 0.000000 -26.875500 61.136400 -11.012300 -3.517578 2.869965 1.649815 80.981112 12.871464 32.852141 -29.736683 41.469804 -14.608575 0.369308 -0.961822 -15.236516 -19.270792 21.161847 -7.581100 7.125000 0.000000 0.000000 5.953000 -6.660200 5.251500 
-27.626160 16.596372 -0.798310 4.627182 8.739584 20.120655 3.833409 -2.197698 -5.214422 -6.663710 0.056338 -53.101569 9.716145 20.602840 60.490957 0.993444 -3.081472 6.808112 1.901300 -8.657400 -24.729400 0.193029 -0.653063 2.782190 15.541455 -6.042916 -1.788086 -0.331806 -9.066760 29.106258 -4.034277 14.233081 10.572705 -0.355200 3.828800 -10.595400 -9.278823 6.250267 21.906582 -0.767034 5.579428 -2.152042 -1.745070 2.972904 1.390146 -10.030957 -8.247702 -6.693477 4.520709 -10.420435 0.933035 8.774600 -2.635900 -2.122000 -2.159900 -0.086302 1.684389 -60.813858 -12.652074 -0.159965 31.547715 -41.874010 -19.488793 0.743871 -2.770033 -36.984000 6.634097 30.316119 4.202900 -7.125000 0.000000 0.000000 -28.745100 60.780600 -11.605400 -3.612995 2.723269 1.626924 81.100750 10.646338 33.278190 -30.646251 42.296621 -15.233705 0.358846 -0.925619 -14.720503 -19.345704 21.242363 -7.628100 7.125000 0.000000 0.000000 5.904000 -6.607600 5.213800 
-27.529368 16.592851 -0.293899 4.584497 8.851995 20.320052 3.779101 -2.330715 -5.452442 -5.440002 -2.052091 -53.183080 8.006915 20.012002 55.746444 1.113266 -3.058454 8.759302 2.519200 -9.872700 -28.565600 0.377763 -0.898863 3.239670 15.244607 -5.426229 0.892010 0.417442 -7.794899 25.826236 -3.769705 12.970837 14.925404 -0.366400 3.888100 -10.762200 -9.499625 6.613537 21.504340 -0.815256 5.982189 -2.157853 -1.732632 3.224649 1.222300 -10.517762 -8.831909 -5.967040 4.870080 -11.439038 0.990839 9.230600 -3.078100 -2.045700 -2.086289 0.099931 1.727966 -62.159086 -10.283593 -1.409105 34.345483 -43.670481 -21.947804 0.961542 -2.534445 -38.217517 4.639318 30.828195 3.004200 -7.125000 0.000000 0.000000 -31.476500 60.637800 -12.725700 -3.741664 2.605198 1.663928 81.237131 8.420729 33.221354 -31.516877 43.093913 -15.874731 0.364451 -0.891499 -14.746541 -19.364138 21.282389 -7.642900 7.125000 0.000000 0.000000 5.884600 -6.597800 5.197600 
-27.407355 16.578309 0.236755 4.409833 8.839160 20.525991 3.765962 -2.455863 -5.698889 -4.164275 -3.889620 -53.235124 6.434530 19.334563 51.332305 1.339295 -3.327401 11.098080 2.851200 -10.450100 -30.447100 0.558681 -1.196176 3.708823 14.923323 -4.292936 3.833982 1.105444 -6.447746 22.328981 -3.492393 11.083649 19.422550 -0.221900 3.032200 -8.368400 -9.351732 6.962629 20.805637 -0.905000 6.433484 -2.148766 -2.278230 3.555754 1.347914 -10.530177 -9.444722 -5.475407 5.070753 -12.494542 1.138741 9.486500 -3.582300 -1.889300 -2.063147 0.371356 1.752971 -63.100511 -7.936542 -2.162706 37.067584 -45.343220 -24.384365 1.158222 -2.293171 -39.367852 2.695409 31.111898 1.802000 -7.125000 0.000000 0.000000 -33.885000 60.302900 -13.556900 -3.870726 2.418623 1.694754 81.553370 6.166528 33.499002 -32.426174 43.981451 -16.518480 0.390949 -0.862826 -15.671536 -19.360313 21.310051 -7.650400 7.125000 0.000000 0.000000 5.876400 -6.589900 5.191200 
